<svg xmlns="http://www.w3.org/2000/svg" xmlns:xlink="http://www.w3.org/1999/xlink" width="500" zoomAndPan="magnify" viewBox="0 0 375 374.999991" height="500" preserveAspectRatio="xMidYMid meet" version="1.0"><defs><clipPath id="b19405cc63"><path d="M 240 246 L 255 246 L 255 262.5 L 240 262.5 Z M 240 246 " clip-rule="nonzero"/></clipPath><clipPath id="c7ea1728ec"><path d="M 120 112.5 L 247 112.5 L 247 248 L 120 248 Z M 120 112.5 " clip-rule="nonzero"/></clipPath></defs><path fill="#ffffff" d="M 253.546875 247.910156 L 253.230469 261.542969 L 241.5625 254.449219 Z M 253.546875 247.910156 " fill-opacity="1" fill-rule="nonzero"/><g clip-path="url(#b19405cc63)"><path fill="#ffffff" d="M 253.230469 262.480469 C 253.0625 262.480469 252.894531 262.445312 252.742188 262.351562 L 241.078125 255.253906 C 240.796875 255.085938 240.628906 254.765625 240.628906 254.429688 C 240.628906 254.089844 240.816406 253.792969 241.113281 253.625 L 253.097656 247.070312 C 253.398438 246.902344 253.753906 246.917969 254.035156 247.089844 C 254.316406 247.257812 254.484375 247.574219 254.484375 247.910156 L 254.167969 261.5625 C 254.167969 261.902344 253.980469 262.199219 253.679688 262.367188 C 253.53125 262.445312 253.378906 262.480469 253.230469 262.480469 Z M 243.4375 254.484375 L 252.332031 259.898438 L 252.574219 249.484375 Z M 243.4375 254.484375 " fill-opacity="1" fill-rule="nonzero"/></g><g clip-path="url(#c7ea1728ec)"><path fill="#ffffff" d="M 245.382812 247.480469 C 245.046875 247.480469 244.726562 247.292969 244.558594 246.996094 C 243.640625 245.289062 242.835938 243.511719 242.164062 241.730469 C 241.9375 241.132812 241.730469 240.550781 241.542969 239.992188 C 241.375 239.503906 241.636719 238.980469 242.144531 238.8125 C 242.632812 238.640625 243.175781 238.90625 243.324219 239.410156 C 243.511719 239.953125 243.699219 240.515625 243.921875 241.078125 C 244.578125 242.800781 245.363281 244.503906 246.226562 246.132812 C 246.46875 246.582031 246.300781 247.164062 245.832031 247.40625 C 245.683594 247.445312 245.535156 247.480469 245.382812 247.480469 Z M 240.738281 233.324219 C 240.273438 233.324219 239.878906 232.988281 239.804688 232.5 C 239.503906 230.101562 239.464844 227.988281 239.464844 226.394531 L 239.484375 224.898438 C 239.484375 224.371094 239.839844 224.015625 240.441406 223.980469 C 240.964844 223.980469 241.375 224.410156 241.359375 224.933594 L 241.339844 226.414062 C 241.339844 227.929688 241.375 229.972656 241.675781 232.273438 C 241.730469 232.78125 241.375 233.25 240.871094 233.324219 C 240.816406 233.324219 240.777344 233.324219 240.738281 233.324219 Z M 239.859375 218.417969 C 239.464844 218.417969 239.089844 218.15625 238.960938 217.761719 C 238.605469 216.636719 238.042969 215.738281 237.199219 214.898438 C 236.375 214.074219 235.515625 213.53125 234.523438 213.175781 C 234.035156 213.003906 233.773438 212.460938 233.960938 211.976562 C 234.128906 211.488281 234.671875 211.226562 235.160156 211.414062 C 236.414062 211.863281 237.519531 212.574219 238.53125 213.585938 C 239.578125 214.636719 240.289062 215.816406 240.738281 217.21875 C 240.890625 217.707031 240.628906 218.230469 240.140625 218.398438 C 240.046875 218.398438 239.953125 218.417969 239.859375 218.417969 Z M 172.351562 217.632812 C 171.507812 217.632812 170.664062 217.613281 169.804688 217.59375 C 169.277344 217.574219 168.886719 217.144531 168.886719 216.636719 C 168.90625 216.113281 169.390625 215.738281 169.839844 215.722656 C 172.292969 215.777344 174.765625 215.757812 177.257812 215.628906 C 177.742188 215.535156 178.210938 216 178.25 216.507812 C 178.269531 217.03125 177.875 217.460938 177.367188 217.5 C 175.703125 217.59375 174 217.632812 172.351562 217.632812 Z M 162.367188 217.070312 C 162.332031 217.070312 162.292969 217.070312 162.238281 217.070312 C 159.578125 216.714844 157.070312 216.171875 154.765625 215.421875 C 154.277344 215.273438 154 214.726562 154.167969 214.242188 C 154.316406 213.753906 154.859375 213.492188 155.347656 213.640625 C 157.539062 214.355469 159.953125 214.878906 162.5 215.214844 C 163.003906 215.289062 163.378906 215.757812 163.304688 216.265625 C 163.230469 216.730469 162.835938 217.070312 162.367188 217.070312 Z M 184.785156 216.824219 C 184.316406 216.824219 183.921875 216.488281 183.847656 216 C 183.773438 215.496094 184.148438 215.027344 184.652344 214.953125 C 187.105469 214.636719 189.558594 214.203125 191.957031 213.699219 C 192.460938 213.585938 192.96875 213.921875 193.0625 214.429688 C 193.175781 214.933594 192.835938 215.441406 192.332031 215.535156 C 189.898438 216.058594 187.386719 216.488281 184.878906 216.808594 C 184.859375 216.824219 184.820312 216.824219 184.785156 216.824219 Z M 199.410156 213.660156 C 199.015625 213.660156 198.640625 213.417969 198.511719 213.023438 C 198.34375 212.539062 198.625 212.011719 199.109375 211.84375 C 201.636719 211.019531 203.828125 210.085938 205.851562 209 C 206.300781 208.753906 206.882812 208.921875 207.125 209.371094 C 207.367188 209.820312 207.199219 210.402344 206.75 210.644531 C 204.636719 211.789062 202.332031 212.761719 199.710938 213.625 C 199.597656 213.640625 199.503906 213.660156 199.410156 213.660156 Z M 227.425781 212.519531 C 227.425781 212.519531 227.40625 212.519531 227.40625 212.519531 C 225.347656 212.460938 222.835938 212.3125 219.804688 211.675781 C 219.296875 211.5625 218.980469 211.078125 219.074219 210.570312 C 219.183594 210.066406 219.671875 209.726562 220.179688 209.839844 C 223.0625 210.441406 225.476562 210.570312 227.445312 210.628906 C 227.96875 210.644531 228.363281 211.078125 228.363281 211.582031 C 228.363281 212.105469 227.929688 212.519531 227.425781 212.519531 Z M 148.285156 212.3125 C 148.117188 212.3125 147.929688 212.257812 147.761719 212.164062 C 145.402344 210.589844 143.546875 208.71875 142.257812 206.582031 C 141.996094 206.132812 142.125 205.570312 142.574219 205.289062 C 143.023438 205.027344 143.585938 205.160156 143.867188 205.609375 C 145.007812 207.5 146.65625 209.183594 148.792969 210.589844 C 149.222656 210.871094 149.335938 211.453125 149.054688 211.882812 C 148.886719 212.164062 148.585938 212.3125 148.285156 212.3125 Z M 212.855469 209.523438 C 212.742188 209.523438 212.632812 209.503906 212.519531 209.449219 C 209.765625 208.363281 207.574219 207.3125 205.628906 206.152344 C 205.179688 205.890625 205.046875 205.308594 205.308594 204.859375 C 205.570312 204.410156 206.152344 204.277344 206.601562 204.542969 C 208.453125 205.664062 210.550781 206.65625 213.210938 207.707031 C 213.699219 207.894531 213.921875 208.4375 213.734375 208.921875 C 213.585938 209.296875 213.230469 209.523438 212.855469 209.523438 Z M 212.367188 206.394531 C 212.125 206.394531 211.863281 206.300781 211.695312 206.09375 C 211.339844 205.722656 211.359375 205.121094 211.730469 204.765625 C 213.453125 203.136719 214.933594 201.171875 216.019531 199.054688 C 216.265625 198.585938 216.824219 198.417969 217.273438 198.640625 C 217.742188 198.886719 217.910156 199.449219 217.6875 199.898438 C 216.507812 202.199219 214.898438 204.355469 213.023438 206.113281 C 212.835938 206.320312 212.59375 206.394531 212.367188 206.394531 Z M 200.289062 201.601562 C 200.027344 201.601562 199.785156 201.488281 199.597656 201.300781 C 198.453125 200.046875 197.460938 198.660156 196.65625 197.179688 C 196.207031 196.375 195.832031 195.515625 195.535156 194.617188 C 195.363281 194.128906 195.628906 193.605469 196.132812 193.4375 C 196.621094 193.269531 197.144531 193.53125 197.3125 194.035156 C 197.574219 194.820312 197.910156 195.589844 198.285156 196.300781 C 199.015625 197.648438 199.933594 198.90625 200.984375 200.066406 C 201.339844 200.441406 201.300781 201.039062 200.925781 201.394531 C 200.738281 201.507812 200.515625 201.601562 200.289062 201.601562 Z M 141.058594 199.878906 C 140.535156 199.878906 140.121094 199.484375 140.121094 198.980469 C 140.121094 196.394531 140.777344 193.867188 142.070312 191.359375 C 142.3125 190.890625 142.875 190.722656 143.324219 190.964844 C 143.792969 191.207031 143.960938 191.769531 143.71875 192.21875 C 142.574219 194.449219 141.976562 196.695312 141.976562 198.90625 C 141.996094 199.449219 141.582031 199.878906 141.058594 199.878906 Z M 218.941406 193.285156 C 218.921875 193.285156 218.886719 193.285156 218.867188 193.285156 C 218.363281 193.25 217.96875 192.800781 218.003906 192.273438 C 218.042969 191.863281 218.0625 191.433594 218.0625 191 C 218.0625 189.429688 217.816406 187.894531 217.3125 186.46875 C 217.199219 186.113281 217.050781 185.777344 216.902344 185.441406 C 216.675781 184.972656 216.882812 184.410156 217.351562 184.183594 C 217.816406 183.960938 218.378906 184.167969 218.605469 184.636719 C 218.792969 185.027344 218.960938 185.441406 219.089844 185.851562 C 219.652344 187.480469 219.933594 189.203125 219.933594 191 C 219.933594 191.46875 219.914062 191.957031 219.878906 192.425781 C 219.839844 192.929688 219.429688 193.285156 218.941406 193.285156 Z M 195.816406 187.855469 C 195.757812 187.855469 195.722656 187.855469 195.664062 187.835938 C 195.160156 187.761719 194.804688 187.273438 194.898438 186.769531 C 195.363281 183.90625 196.5625 181.453125 198.363281 179.617188 C 198.734375 179.242188 199.316406 179.242188 199.691406 179.617188 C 200.066406 179.992188 200.066406 180.570312 199.691406 180.945312 C 198.15625 182.480469 197.144531 184.597656 196.75 187.070312 C 196.65625 187.519531 196.265625 187.855469 195.816406 187.855469 Z M 147.40625 186.789062 C 147.164062 186.789062 146.917969 186.695312 146.730469 186.507812 C 146.375 186.132812 146.375 185.550781 146.75 185.179688 C 148.53125 183.4375 150.589844 181.863281 152.855469 180.496094 C 153.304688 180.234375 153.867188 180.363281 154.148438 180.816406 C 154.410156 181.265625 154.277344 181.824219 153.828125 182.105469 C 151.675781 183.398438 149.746094 184.878906 148.0625 186.527344 C 147.875 186.695312 147.648438 186.789062 147.40625 186.789062 Z M 212.816406 180.476562 C 212.648438 180.476562 212.460938 180.421875 212.3125 180.328125 C 210.347656 179.074219 208.082031 178.363281 205.964844 178.363281 L 205.757812 178.363281 C 205.757812 178.363281 205.738281 178.363281 205.738281 178.363281 C 205.234375 178.363281 204.820312 177.949219 204.804688 177.445312 C 204.785156 176.917969 205.195312 176.507812 205.722656 176.488281 L 205.964844 176.488281 C 208.4375 176.488281 211.058594 177.292969 213.324219 178.753906 C 213.753906 179.035156 213.886719 179.617188 213.605469 180.046875 C 213.4375 180.308594 213.117188 180.476562 212.816406 180.476562 Z M 160.121094 179.089844 C 159.726562 179.089844 159.371094 178.847656 159.242188 178.453125 C 159.074219 177.96875 159.335938 177.425781 159.820312 177.257812 C 162.332031 176.394531 164.898438 175.683594 167.070312 175.121094 C 167.574219 174.992188 168.082031 175.289062 168.210938 175.796875 C 168.34375 176.300781 168.042969 176.808594 167.539062 176.9375 C 165.382812 177.5 162.875 178.191406 160.421875 179.035156 C 160.328125 179.074219 160.234375 179.089844 160.121094 179.089844 Z M 174.558594 175.066406 C 174.148438 175.066406 173.773438 174.804688 173.660156 174.371094 C 173.53125 173.867188 173.8125 173.363281 174.316406 173.210938 C 177.125 172.425781 179.355469 171.695312 181.339844 170.925781 C 181.808594 170.738281 182.367188 170.964844 182.554688 171.453125 C 182.742188 171.9375 182.519531 172.480469 182.03125 172.667969 C 179.992188 173.472656 177.707031 174.222656 174.820312 175.027344 C 174.726562 175.066406 174.636719 175.066406 174.558594 175.066406 Z M 188.324219 169.355469 C 188.023438 169.355469 187.726562 169.203125 187.539062 168.941406 C 187.257812 168.511719 187.367188 167.929688 187.800781 167.648438 C 188.472656 167.21875 189.128906 166.730469 189.746094 166.246094 C 190.984375 165.273438 192.144531 164.148438 193.191406 162.910156 C 193.53125 162.519531 194.109375 162.460938 194.503906 162.800781 C 194.898438 163.136719 194.953125 163.71875 194.617188 164.128906 C 193.492188 165.457031 192.238281 166.675781 190.910156 167.726562 C 190.234375 168.269531 189.542969 168.753906 188.8125 169.222656 C 188.679688 169.296875 188.511719 169.355469 188.324219 169.355469 Z M 197.910156 158.097656 C 197.78125 158.097656 197.648438 158.082031 197.519531 158.023438 C 197.050781 157.816406 196.84375 157.257812 197.050781 156.789062 C 198.042969 154.578125 198.753906 152.257812 199.148438 149.878906 C 199.222656 149.371094 199.710938 149.015625 200.214844 149.109375 C 200.722656 149.183594 201.078125 149.671875 200.984375 150.179688 C 200.570312 152.726562 199.820312 155.214844 198.753906 157.554688 C 198.605469 157.894531 198.269531 158.097656 197.910156 158.097656 Z M 200.273438 143.492188 C 199.804688 143.492188 199.390625 143.136719 199.335938 142.667969 C 199.148438 141.039062 198.8125 139.449219 198.304688 137.910156 C 198.0625 137.164062 197.78125 136.433594 197.460938 135.722656 C 197.257812 135.253906 197.460938 134.691406 197.949219 134.484375 C 198.417969 134.277344 198.980469 134.484375 199.183594 134.972656 C 199.523438 135.738281 199.820312 136.527344 200.085938 137.332031 C 200.628906 138.980469 201 140.703125 201.1875 142.445312 C 201.246094 142.949219 200.871094 143.417969 200.363281 143.472656 C 200.347656 143.492188 200.308594 143.492188 200.273438 143.492188 Z M 194.371094 129.953125 C 194.109375 129.953125 193.847656 129.839844 193.660156 129.617188 C 192.125 127.78125 190.328125 126.132812 188.324219 124.746094 C 187.894531 124.449219 187.800781 123.867188 188.082031 123.4375 C 188.363281 123.003906 188.960938 122.910156 189.390625 123.191406 C 191.527344 124.671875 193.453125 126.414062 195.101562 128.398438 C 195.441406 128.792969 195.382812 129.390625 194.992188 129.710938 C 194.804688 129.878906 194.597656 129.953125 194.371094 129.953125 Z M 138.285156 126.84375 C 138.25 126.84375 138.230469 126.84375 138.191406 126.84375 C 135.515625 126.601562 132.96875 125.984375 130.664062 125.046875 C 130.179688 124.859375 129.953125 124.296875 130.140625 123.828125 C 130.328125 123.363281 130.890625 123.117188 131.359375 123.304688 C 133.472656 124.167969 135.890625 124.726562 138.363281 124.972656 C 138.867188 125.027344 139.261719 125.476562 139.203125 125.984375 C 139.183594 126.488281 138.773438 126.84375 138.285156 126.84375 Z M 145.757812 126.546875 C 145.308594 126.546875 144.914062 126.226562 144.839844 125.777344 C 144.746094 125.273438 145.085938 124.785156 145.589844 124.691406 C 147.6875 124.316406 149.898438 123.753906 152.742188 122.910156 C 153.230469 122.761719 153.753906 123.042969 153.90625 123.53125 C 154.054688 124.015625 153.773438 124.542969 153.269531 124.691406 C 150.347656 125.570312 148.0625 126.132812 145.910156 126.527344 C 145.871094 126.527344 145.816406 126.546875 145.757812 126.546875 Z M 160.179688 122.519531 C 159.785156 122.519531 159.410156 122.257812 159.277344 121.84375 C 159.128906 121.359375 159.410156 120.832031 159.898438 120.683594 C 161.882812 120.085938 164.523438 119.335938 167.257812 118.828125 C 167.761719 118.734375 168.25 119.074219 168.34375 119.578125 C 168.4375 120.085938 168.097656 120.570312 167.59375 120.664062 C 164.953125 121.152344 162.386719 121.902344 160.441406 122.480469 C 160.347656 122.5 160.273438 122.519531 160.179688 122.519531 Z M 182.199219 121.527344 C 182.105469 121.527344 181.996094 121.507812 181.882812 121.46875 C 179.558594 120.664062 177.199219 120.195312 174.820312 120.085938 C 174.296875 120.066406 173.90625 119.617188 173.921875 119.109375 C 173.941406 118.605469 174.410156 118.191406 174.898438 118.210938 C 177.445312 118.324219 179.992188 118.828125 182.480469 119.691406 C 182.96875 119.859375 183.230469 120.402344 183.0625 120.890625 C 182.949219 121.28125 182.59375 121.527344 182.199219 121.527344 Z M 124.820312 121.019531 C 124.578125 121.019531 124.316406 120.925781 124.148438 120.722656 C 122.238281 118.679688 121.058594 116.28125 120.683594 113.585938 C 120.609375 113.082031 120.964844 112.59375 121.46875 112.519531 C 121.976562 112.460938 122.460938 112.800781 122.539062 113.304688 C 122.855469 115.609375 123.867188 117.667969 125.515625 119.410156 C 125.871094 119.785156 125.851562 120.382812 125.476562 120.738281 C 125.289062 120.945312 125.046875 121.019531 124.820312 121.019531 Z M 124.820312 121.019531 " fill-opacity="1" fill-rule="nonzero"/></g></svg>
